<?xml version="1.0" encoding="UTF-8" standalone="no"?>
<!DOCTYPE svg PUBLIC "-//W3C//DTD SVG 1.1//EN" "http://www.w3.org/Graphics/SVG/1.1/DTD/svg11.dtd">
<svg width="100%" height="100%" viewBox="0 0 9155 8538" version="1.1" xmlns="http://www.w3.org/2000/svg" xmlns:xlink="http://www.w3.org/1999/xlink" xml:space="preserve" xmlns:serif="http://www.serif.com/" style="fill-rule:evenodd;clip-rule:evenodd;stroke-linejoin:round;stroke-miterlimit:2;">
    <g transform="matrix(4.16667,0,0,4.16667,0,0)">
        <path d="M975.533,1868.18C660.931,1868.17 242.635,1795.47 130.173,1448.45C95.177,1340.47 125.946,1191.59 173.669,1095.25C218.518,1004.72 300.249,930.104 260.76,812.505C220.173,691.611 144.897,650.767 208.708,500.959C299.774,287.187 512.515,248.214 689.811,219.992C843.359,195.554 993.566,180.804 1143.26,180.804C1314.84,180.804 1485.73,200.197 1659.95,246.606C1791.12,281.551 1913.73,343.256 1987.99,486.813C2049.99,606.658 2022.6,736.64 2022.43,868.151C2022.16,1070.48 2121.91,1276.15 2061.86,1476.72C1948.67,1854.7 1429.51,1835.95 1164.58,1859.7C1109.57,1864.63 1045.1,1868.18 975.533,1868.18ZM1569.55,1496.34C1577.86,1498.49 1586.35,1500.16 1594.99,1501.39L1594.99,1526.94L1660.53,1526.94L1660.53,1501.39C1668.67,1500.23 1676.69,1498.68 1684.54,1496.69L1694.22,1520.29L1754.85,1495.41L1745.14,1471.74C1752.6,1467.34 1759.81,1462.56 1766.7,1457.38L1784.79,1475.47L1831.13,1429.13L1813.01,1411.01C1817.89,1404.5 1822.41,1397.72 1826.59,1390.7L1850.26,1400.6L1875.53,1340.13L1851.85,1330.24C1853.99,1321.95 1855.62,1313.47 1856.83,1304.86L1882.61,1304.86L1882.61,1239.33L1856.77,1239.33C1855.61,1231.22 1854.06,1223.24 1852.09,1215.43L1875.96,1205.63L1851.08,1145L1827.1,1154.85C1822.71,1147.43 1817.96,1140.25 1812.8,1133.39L1831.13,1115.06L1784.79,1068.72L1766.43,1087.09C1759.96,1082.23 1753.21,1077.74 1746.24,1073.57L1756.26,1049.59L1695.8,1024.32L1685.79,1048.28C1677.53,1046.15 1669.1,1044.51 1660.53,1043.29L1660.53,1017.25L1594.99,1017.25L1594.99,1043.29C1586.9,1044.44 1578.96,1045.98 1571.16,1047.94L1561.29,1023.9L1500.67,1048.78L1510.54,1072.85C1503.13,1077.21 1495.95,1081.94 1489.09,1087.09L1470.72,1068.72L1424.38,1115.06L1442.72,1133.39C1437.85,1139.86 1433.33,1146.61 1429.15,1153.58L1405.26,1143.59L1379.99,1204.05L1403.79,1214C1401.64,1222.27 1399.97,1230.73 1398.75,1239.33L1372.91,1239.33L1372.91,1304.86L1398.68,1304.86C1399.82,1312.98 1401.36,1320.97 1403.33,1328.8L1379.56,1338.56L1404.45,1399.18L1428.2,1389.43C1432.58,1396.9 1437.33,1404.11 1442.51,1411.01L1424.38,1429.13L1470.72,1475.47L1488.81,1457.38C1495.32,1462.27 1502.1,1466.81 1509.11,1471.01L1499.26,1494.6L1559.72,1519.86L1569.55,1496.34ZM1608.14,874.109C1613.42,875.446 1618.79,876.521 1624.25,877.329L1624.25,913.711L1672.12,913.711L1672.12,877.329C1676.63,876.663 1681.06,875.783 1685.43,874.755L1698.81,908.632L1743.34,891.054L1729.9,857.003C1735.35,853.812 1740.63,850.342 1745.65,846.556L1771.6,872.506L1805.45,838.656L1779.24,812.446C1782.35,808.182 1785.27,803.76 1787.96,799.195L1822.31,813.457L1840.66,769.244L1805.9,754.811C1807.13,749.688 1808.11,744.476 1808.84,739.179L1846.66,739.179L1846.66,691.308L1808.38,691.308C1807.7,687.057 1806.85,682.868 1805.85,678.733L1841.58,664.625L1824,620.098L1787.84,634.374C1784.78,629.205 1781.46,624.207 1777.86,619.426L1805.45,591.832L1771.6,557.982L1743.75,585.836C1739.73,582.896 1735.56,580.131 1731.27,577.567L1746.4,541.128L1702.19,522.772L1686.99,559.379C1682.12,558.182 1677.16,557.191 1672.12,556.446L1672.12,516.777L1624.25,516.777L1624.25,556.446C1620.16,557.053 1616.13,557.84 1612.13,558.745L1597.57,521.853L1553.04,539.432L1567.55,576.165C1562.39,579.123 1557.41,582.346 1552.63,585.836L1524.78,557.982L1490.93,591.832L1518.52,619.426C1515.49,623.458 1512.65,627.637 1509.99,631.944L1474.07,617.03L1455.72,661.244L1491.19,675.973C1489.88,680.992 1488.82,686.111 1488,691.308L1449.73,691.308L1449.73,739.179L1487.54,739.179C1488.14,743.52 1488.9,747.806 1489.84,752.029L1454.8,765.863L1472.38,810.39L1507,796.722C1510.09,802.165 1513.47,807.417 1517.14,812.446L1490.93,838.656L1524.78,872.506L1550.73,846.556C1555,849.769 1559.43,852.784 1564,855.573L1549.97,889.359L1594.19,907.719L1608.14,874.109ZM842.438,646.379C848.865,648.047 855.444,649.332 862.133,650.282L862.133,670.06L912.849,670.06L912.849,650.282C919.151,649.387 925.359,648.183 931.429,646.652L938.93,664.915L985.851,645.656L978.329,627.339C984.106,623.933 989.685,620.237 995.026,616.223L1009.03,630.222L1044.89,594.358L1030.87,580.337C1034.64,575.301 1038.13,570.049 1041.37,564.621L1059.69,572.278L1079.25,525.482L1060.92,517.822C1062.58,511.413 1063.85,504.851 1064.78,498.182L1084.72,498.182L1084.72,447.464L1064.74,447.464C1063.84,441.189 1062.64,435.013 1061.1,428.966L1079.58,421.383L1060.32,374.463L1041.76,382.083C1038.37,376.338 1034.69,370.786 1030.7,365.477L1044.89,351.287L1009.03,315.424L994.813,329.638C989.804,325.883 984.582,322.402 979.186,319.182L986.945,300.619L940.148,281.063L932.4,299.605C926.018,297.958 919.488,296.685 912.849,295.744L912.849,275.586L862.133,275.586L862.133,295.744C855.87,296.63 849.717,297.825 843.687,299.341L836.047,280.734L789.132,299.992L796.772,318.617C791.034,321.995 785.475,325.657 780.164,329.638L765.954,315.424L730.093,351.287L744.283,365.477C740.512,370.487 737.019,375.704 733.779,381.099L715.288,373.368L695.728,420.164L714.149,427.864C712.484,434.262 711.196,440.808 710.244,447.464L690.253,447.464L690.253,498.182L710.195,498.182C711.076,504.469 712.276,510.653 713.792,516.712L695.4,524.266L714.659,571.183L733.036,563.637C736.435,569.412 740.111,574.998 744.114,580.337L730.093,594.358L765.954,630.222L779.956,616.223C784.99,620.009 790.237,623.523 795.662,626.772L788.032,645.027L834.833,664.585L842.438,646.379ZM1627.76,1414.57C1549.21,1414.57 1485.53,1350.89 1485.53,1272.34C1485.53,1193.79 1549.21,1130.11 1627.76,1130.11C1706.31,1130.11 1769.99,1193.79 1769.99,1272.34C1769.99,1350.89 1706.31,1414.57 1627.76,1414.57ZM1648.19,808.993C1596.42,808.993 1554.44,767.019 1554.44,715.244C1554.44,663.468 1596.42,621.495 1648.19,621.495C1699.97,621.495 1741.93,663.468 1741.93,715.244C1741.93,767.019 1699.97,808.993 1648.19,808.993ZM887.491,583.092C826.698,583.092 777.41,533.808 777.41,473.012C777.41,412.219 826.698,362.936 887.491,362.936C948.284,362.936 997.562,412.219 997.562,473.012C997.562,533.808 948.284,583.092 887.491,583.092Z" style="fill:rgb(192,230,247);fill-rule:nonzero;"/>
        <path d="M1672.12,913.711L1624.25,913.711L1624.25,877.329C1618.79,876.521 1613.42,875.446 1608.14,874.109L1594.19,907.719L1549.97,889.359L1564,855.573C1559.43,852.784 1555,849.769 1550.73,846.556L1524.78,872.506L1490.93,838.656L1517.14,812.446C1513.47,807.417 1510.09,802.165 1507,796.722L1472.38,810.39L1454.8,765.863L1489.84,752.029C1488.9,747.806 1488.14,743.52 1487.54,739.179L1449.73,739.179L1449.73,691.308L1488,691.308C1488.82,686.111 1489.88,680.992 1491.19,675.973L1455.72,661.244L1474.07,617.03L1509.99,631.944C1512.65,627.637 1515.49,623.458 1518.52,619.426L1490.93,591.832L1524.78,557.982L1552.63,585.836C1557.41,582.346 1562.39,579.123 1567.55,576.165L1553.04,539.432L1597.57,521.853L1612.13,558.745C1616.13,557.84 1620.16,557.053 1624.25,556.446L1624.25,516.777L1672.12,516.777L1672.12,556.446C1677.16,557.191 1682.12,558.182 1686.99,559.379L1702.19,522.772L1746.4,541.128L1731.27,577.567C1735.56,580.131 1739.73,582.896 1743.75,585.836L1771.6,557.982L1805.45,591.832L1777.86,619.426C1781.46,624.207 1784.78,629.205 1787.84,634.374L1824,620.098L1841.58,664.625L1805.85,678.733C1806.85,682.868 1807.7,687.057 1808.38,691.308L1846.66,691.308L1846.66,739.179L1808.84,739.179C1808.11,744.476 1807.13,749.688 1805.9,754.811L1840.66,769.244L1822.31,813.457L1787.96,799.195C1785.27,803.76 1782.35,808.182 1779.24,812.446L1805.45,838.656L1771.6,872.506L1745.65,846.556C1740.63,850.342 1735.35,853.812 1729.9,857.003L1743.34,891.054L1698.81,908.632L1685.43,874.755C1681.06,875.783 1676.63,876.663 1672.12,877.329L1672.12,913.711ZM1648.19,621.495C1596.42,621.495 1554.44,663.468 1554.44,715.244C1554.44,767.019 1596.42,808.993 1648.19,808.993C1699.97,808.993 1741.93,767.019 1741.93,715.244C1741.93,663.468 1699.97,621.495 1648.19,621.495Z" style="fill:rgb(177,206,232);fill-rule:nonzero;"/>
        <path d="M912.849,670.06L862.133,670.06L862.133,650.282C855.444,649.332 848.865,648.047 842.438,646.379L834.833,664.585L788.032,645.027L795.662,626.772C790.237,623.523 784.99,620.009 779.956,616.223L765.954,630.222L730.093,594.358L744.114,580.337C740.111,574.998 736.435,569.412 733.036,563.637L714.659,571.183L695.4,524.266L713.792,516.712C712.276,510.653 711.076,504.469 710.195,498.182L690.253,498.182L690.253,447.464L710.244,447.464C711.196,440.808 712.484,434.262 714.149,427.864L695.728,420.164L715.288,373.368L733.779,381.099C737.019,375.704 740.512,370.487 744.283,365.477L730.093,351.287L765.954,315.424L780.164,329.638C785.475,325.657 791.034,321.995 796.772,318.617L789.132,299.992L836.047,280.734L843.687,299.341C849.717,297.825 855.87,296.63 862.133,295.744L862.133,275.586L912.849,275.586L912.849,295.744C919.488,296.685 926.018,297.958 932.4,299.605L940.148,281.063L986.945,300.619L979.186,319.182C984.582,322.402 989.804,325.883 994.813,329.638L1009.03,315.424L1044.89,351.287L1030.7,365.477C1034.69,370.786 1038.37,376.338 1041.76,382.083L1060.32,374.463L1079.58,421.383L1061.1,428.966C1062.64,435.013 1063.84,441.189 1064.74,447.464L1084.72,447.464L1084.72,498.182L1064.78,498.182C1063.85,504.851 1062.58,511.413 1060.92,517.822L1079.25,525.482L1059.69,572.278L1041.37,564.621C1038.13,570.049 1034.64,575.301 1030.87,580.337L1044.89,594.358L1009.03,630.222L995.026,616.223C989.685,620.237 984.106,623.933 978.329,627.339L985.851,645.656L938.93,664.915L931.429,646.652C925.359,648.183 919.151,649.387 912.849,650.282L912.849,670.06ZM887.491,362.936C826.698,362.936 777.41,412.219 777.41,473.012C777.41,533.808 826.698,583.092 887.491,583.092C948.284,583.092 997.562,533.808 997.562,473.012C997.562,412.219 948.284,362.936 887.491,362.936Z" style="fill:rgb(145,179,219);fill-rule:nonzero;"/>
        <path d="M1660.53,1526.94L1594.99,1526.94L1594.99,1501.39C1586.35,1500.16 1577.86,1498.49 1569.55,1496.34L1559.72,1519.86L1499.26,1494.6L1509.11,1471.01C1502.1,1466.81 1495.32,1462.27 1488.81,1457.38L1470.72,1475.47L1424.38,1429.13L1442.51,1411.01C1437.33,1404.11 1432.58,1396.9 1428.2,1389.43L1404.45,1399.18L1379.56,1338.56L1403.33,1328.8C1401.36,1320.97 1399.82,1312.98 1398.68,1304.86L1372.91,1304.86L1372.91,1239.33L1398.75,1239.33C1399.97,1230.73 1401.64,1222.27 1403.79,1214L1379.99,1204.05L1405.26,1143.59L1429.15,1153.58C1433.33,1146.61 1437.85,1139.86 1442.72,1133.39L1424.38,1115.06L1470.72,1068.72L1489.09,1087.09C1495.95,1081.94 1503.13,1077.21 1510.54,1072.85L1500.67,1048.78L1561.29,1023.9L1571.16,1047.94C1578.96,1045.98 1586.9,1044.44 1594.99,1043.29L1594.99,1017.25L1660.53,1017.25L1660.53,1043.29C1669.1,1044.51 1677.53,1046.15 1685.79,1048.28L1695.8,1024.32L1756.26,1049.59L1746.24,1073.57C1753.21,1077.74 1759.96,1082.23 1766.43,1087.09L1784.79,1068.72L1831.13,1115.06L1812.8,1133.39C1817.96,1140.25 1822.71,1147.43 1827.1,1154.85L1851.08,1145L1875.96,1205.63L1852.09,1215.43C1854.06,1223.24 1855.61,1231.22 1856.77,1239.33L1882.61,1239.33L1882.61,1304.86L1856.83,1304.86C1855.62,1313.47 1853.99,1321.95 1851.85,1330.24L1875.53,1340.13L1850.26,1400.6L1826.59,1390.7C1822.41,1397.72 1817.89,1404.5 1813.01,1411.01L1831.13,1429.13L1784.79,1475.47L1766.7,1457.38C1759.81,1462.56 1752.6,1467.34 1745.14,1471.74L1754.85,1495.41L1694.22,1520.29L1684.54,1496.69C1676.69,1498.68 1668.67,1500.23 1660.53,1501.39L1660.53,1526.94ZM1627.76,1130.11C1549.21,1130.11 1485.53,1193.79 1485.53,1272.34C1485.53,1350.89 1549.21,1414.57 1627.76,1414.57C1706.31,1414.57 1769.99,1350.89 1769.99,1272.34C1769.99,1193.79 1706.31,1130.11 1627.76,1130.11Z" style="fill:rgb(145,179,219);fill-rule:nonzero;"/>
        <path d="M886.312,939.639C856.366,862.636 838.777,860.573 814.386,826.698C778.668,777.09 704.983,737.195 697.095,775.881C693.22,794.842 834.179,938.945 856.515,967.602C867.232,962.856 874.421,947.412 886.312,939.639Z" style="fill:rgb(235,177,185);fill-rule:nonzero;"/>
        <path d="M854.325,978.832C834.913,955.218 755.227,860.87 746.958,852.464C698.799,803.51 676.206,783.122 695.074,753.813C716.447,720.615 775.685,771.315 815.887,815.503C842.424,844.678 855.073,860.689 891.598,921.299C897.777,941.68 876.422,985.778 854.325,978.832Z" style="fill:rgb(237,133,127);fill-rule:nonzero;"/>
        <path d="M652.603,540.043C640.117,537.968 628.062,541.148 616.929,546.742C611.766,549.333 608.115,551.087 602.521,552.586C583.634,557.64 579.393,585.874 580.87,602.149C581.682,611.093 585.299,619.934 587.806,628.479C594.396,650.93 612.728,673.692 638.289,672.562C654.584,671.841 671.331,662.883 681.398,650.113C706.558,618.178 699.84,547.899 652.603,540.043Z" style="fill:rgb(72,101,163);fill-rule:nonzero;"/>
        <path d="M864.511,963.272C857.694,958.587 839.857,941.67 843.335,929.947C846.244,920.125 851.154,918.846 851.144,918.851C902.394,895.768 950.682,878.555 991.043,867.782C1030.74,857.184 1008.43,889.428 1008.43,889.428C969.48,913.659 934.748,939.695 864.511,963.272Z" style="fill:rgb(235,177,185);fill-rule:nonzero;"/>
        <path d="M1007.08,854.441C998.772,863.424 991.052,873.078 992.786,876.563L993.138,877.262C994.065,876.893 994.986,876.526 995.918,876.158C995.918,876.158 993.589,878.06 997.008,875.724C997.286,875.61 997.563,875.499 997.85,875.384C995.779,878.397 994.996,881.645 996.968,884.944C1003.45,895.798 1019.54,886.832 1027.79,883.228C1034.49,880.297 1040.67,876.091 1046.54,871.78C1053.42,866.729 1059.22,850.448 1051.83,843.633C1044.24,836.644 1038.33,850.891 1032.2,845.258C1028.79,842.134 1034.58,828.662 1024.46,836.808C1022.51,838.8 1014.56,846.348 1007.08,854.441Z" style="fill:rgb(235,177,185);fill-rule:nonzero;"/>
        <path d="M982.372,869.536C943.478,880.386 894.561,893.055 846.249,914.811C839.535,928.384 846.244,920.125 843.335,929.947C839.857,941.67 851.129,974.794 857.947,979.479C921.49,958.149 961.83,921.299 996.671,899.1L982.372,869.536Z" style="fill:rgb(237,133,127);fill-rule:nonzero;"/>
        <path d="M982.734,908.459C987.495,905.14 992.132,901.991 996.671,899.102L982.372,869.536C976.991,871.037 971.402,872.667 965.665,874.399L982.734,908.459Z" style="fill:white;fill-rule:nonzero;"/>
        <path d="M690.317,1507.3C690.317,1507.3 667.788,1564.89 714.238,1750.24C717.959,1765.08 729.518,1764.14 735.701,1759.36C739.853,1756.15 739.873,1750.11 739.873,1750.11C739.873,1750.11 761.763,1538.93 756.248,1512.87C750.743,1486.81 690.317,1507.3 690.317,1507.3Z" style="fill:rgb(235,177,185);fill-rule:nonzero;"/>
        <path d="M750.079,1080.99L642.436,1080.99C642.445,1081.47 642.46,1081.95 642.46,1082.41C642.535,1103.01 642.683,1123.61 642.961,1144.21C643.674,1196.32 642.51,1182.92 645.537,1234.95C648.103,1279.21 680.457,1480.32 685.095,1491.04C689.802,1501.92 687.562,1521.7 696.927,1529.92C711.84,1543.02 740.983,1549.95 753.498,1533.6C761.951,1522.56 758.136,1465.93 759.672,1451.86C760.98,1439.9 760.93,1427.65 761.475,1416.47C763.675,1371.55 760.633,1326.52 760.45,1281.58C760.197,1218.61 760.018,1157.81 750.079,1080.99Z" style="fill:rgb(58,80,124);fill-rule:nonzero;"/>
        <path d="M802.638,1769.25C795.305,1768.18 793.026,1769.2 785.683,1767.99C778.445,1766.81 771.32,1764.27 764.755,1761.01C758.264,1757.79 748.811,1751.21 743.242,1746.75C742.539,1746.19 741.825,1745.72 741.112,1745.29C731.193,1749.87 725.515,1749.57 714.887,1745.07C713.881,1744.65 713.227,1744.03 712.851,1743.31C712.553,1743.56 712.271,1743.84 712.023,1744.15C710.319,1746.33 710.017,1749.34 709.62,1751.98C708.872,1756.89 706.563,1777.31 707.569,1782.15C708.996,1788.99 746.235,1797.15 758.453,1797.9C774.902,1798.93 787.457,1799.62 803.703,1796.99C819.544,1794.42 815.049,1771.07 802.638,1769.25Z" style="fill:rgb(54,76,126);fill-rule:nonzero;"/>
        <path d="M605.246,643.208C609.606,652.679 627.165,662.532 628.766,653.165C629.747,647.432 628.979,635.514 624.619,626.043C620.268,616.572 621.626,614.9 612.995,618.871C604.359,622.843 600.891,633.738 605.246,643.208Z" style="fill:rgb(235,177,185);fill-rule:nonzero;"/>
        <path d="M628.454,661.303C630.029,640.694 690.446,679.003 690.446,679.003L683.975,757.631C683.975,757.631 683.351,754.472 653.638,755.176C635.529,755.601 624.257,761.305 625.164,744.387C625.718,733.93 627.909,668.427 628.454,661.303Z" style="fill:rgb(235,177,185);fill-rule:nonzero;"/>
        <path d="M627.547,681.181C636.098,708.796 660.639,728.706 686.333,726.659L690.446,679.003C690.446,679.003 630.029,640.694 628.454,661.303C628.285,663.485 628.676,657.037 627.76,666.052C628.131,666.495 627.344,680.527 627.547,681.181Z" style="fill:rgb(230,150,138);fill-rule:nonzero;"/>
        <path d="M704.012,690.253C686.799,704.086 652.89,700.261 637.966,684.994C628.939,675.758 623.855,665.447 621.804,653.177C619.505,639.361 620.591,626.311 618.386,612.408C617.434,606.413 616.622,600.351 616.944,594.269C617.454,584.541 620.962,574.926 626.888,566.977C632.71,559.161 641.856,555.187 650.016,550.156C656.933,545.895 664.672,540.638 672.832,539.216C678.46,538.233 682.241,541.587 686.898,544.478C712.167,560.177 724.876,595.924 725.594,624.584C726.119,645.924 721.719,676.018 704.012,690.253Z" style="fill:rgb(235,177,185);fill-rule:nonzero;"/>
        <path d="M629.583,618.871C638.293,625.543 645.844,634.642 655.258,640.303C667.754,647.809 678.376,648.592 690.664,640.394C702.724,632.351 713.49,630.966 725.539,632.893C724.821,653.155 719.519,677.787 704.012,690.253C686.799,704.086 652.89,700.261 637.966,684.994C628.939,675.758 623.855,665.447 621.804,653.177C619.51,639.386 620.586,626.358 618.396,612.483C622.459,613.937 626.135,616.226 629.583,618.871Z" style="fill:rgb(72,101,163);fill-rule:nonzero;"/>
        <path d="M612.649,1501.05C612.649,1501.05 635.177,1558.64 588.727,1744C585.012,1758.84 573.447,1757.89 567.264,1753.11C563.112,1749.91 563.092,1743.86 563.092,1743.86C563.092,1743.86 551.935,1528.86 557.444,1502.81C562.953,1476.75 612.649,1501.05 612.649,1501.05Z" style="fill:rgb(235,177,185);fill-rule:nonzero;"/>
        <path d="M556.408,1080.99C554.015,1086.2 552.41,1090.96 551.895,1094.87C542.644,1165.17 542.778,1211.85 542.516,1275.34C542.332,1320.27 547.267,1459.33 550.002,1511.56C551.082,1532.12 596.803,1546.69 611.712,1533.6C621.081,1525.37 627.661,1518.31 632.373,1507.43C637.01,1496.71 653.851,1257.53 656.422,1213.27C659.45,1161.24 659.291,1190.07 660.004,1137.97C660.262,1118.98 660.401,1099.98 660.48,1080.99L556.408,1080.99Z" style="fill:rgb(58,80,124);fill-rule:nonzero;"/>
        <path d="M713.118,1058.03C717.776,965.001 735.865,828.13 724.137,814.891C703.496,791.592 732.748,809.122 717.81,790.45C695.475,762.528 626.016,733.385 598.092,773.795C588.628,787.495 596.873,817.24 594.643,827.5C589.689,850.237 587.816,963.517 582.207,1054.76L713.118,1058.03Z" style="fill:rgb(235,177,185);fill-rule:nonzero;"/>
        <path d="M729.201,746.968C724.048,745.155 690.585,738.037 684.52,736.943C677.445,743.339 668.804,734.064 658.27,733.643C647.291,733.204 634.419,741.365 627.106,735.677C626.675,735.342 626.333,734.988 626.006,734.634C620.605,734.928 634.865,735.382 629.296,735.867C614.72,737.532 570.202,758.77 560.843,764.542C522.504,788.188 536.278,821.416 537.091,834.935C539.251,870.854 542.664,1155.05 536.169,1193.85L769.274,1193.85C773.218,1190.41 763.719,876.006 760.95,830.31C757.254,769.257 759.047,757.462 729.201,746.968Z" style="fill:rgb(241,146,139);fill-rule:nonzero;"/>
        <path d="M650.284,1771.55C642.956,1770.48 640.681,1771.49 633.329,1770.29C626.095,1769.1 618.971,1766.56 612.406,1763.3C605.915,1760.08 596.467,1753.5 590.888,1749.04C590.184,1748.48 589.471,1748.01 588.757,1747.59C578.838,1752.17 573.16,1751.86 562.537,1747.37C561.527,1746.94 560.873,1746.32 560.506,1745.61C560.199,1745.85 559.921,1746.13 559.674,1746.45C557.969,1748.63 557.667,1751.63 557.265,1754.27C556.523,1759.18 554.214,1779.61 555.219,1784.44C556.641,1791.29 593.88,1799.44 606.098,1800.2C622.553,1801.22 635.108,1801.91 651.354,1799.28C667.189,1796.72 662.7,1773.36 650.284,1771.55Z" style="fill:rgb(54,76,126);fill-rule:nonzero;"/>
        <path d="M745.224,1750.25C751.2,1688.55 760.306,1532.06 756.248,1512.87C750.738,1486.81 690.317,1507.3 690.317,1507.3C690.317,1507.3 663.359,1565.02 711.23,1748.86L745.224,1750.25Z" style="fill:rgb(58,80,124);fill-rule:nonzero;"/>
        <path d="M593.979,1750.6C632.442,1584.52 634.221,1488.93 634.221,1488.93C634.221,1488.93 548.744,1457.36 550.968,1505.58C551.905,1525.86 553.857,1686.98 557.815,1751.42L593.979,1750.6Z" style="fill:rgb(58,80,124);fill-rule:nonzero;"/>
        <path d="M628.206,712.831L667.224,731.242L650.571,771.944L593.221,746.968C593.221,746.968 612.48,714.218 628.206,712.831Z" style="fill:white;fill-rule:nonzero;"/>
        <path d="M667.224,731.242L690.347,767.319L708.223,743.82C708.223,743.82 701.752,723.005 687.414,720.691L667.224,731.242Z" style="fill:white;fill-rule:nonzero;"/>
        <path d="M727.185,525.571C726.441,515.56 720.401,515.439 711.771,516.742C703.367,518.013 695.063,520.503 686.427,520.887C676.826,521.31 668.457,519.408 659.182,517.941C643.159,515.404 626.596,519.509 612.024,527.129C590.144,538.567 576.837,576.47 580.8,601.365C582.108,609.589 585.318,607.654 591.596,613.137C594.46,615.638 598.24,618.77 601.867,620.055C605.068,621.193 609.467,619.689 612.817,619.345C614.184,617.472 617.979,620.873 619.129,622.459C621.002,625.03 622.142,630.106 626.462,628.815C630.336,627.656 631.674,622.726 632.071,619.271C632.913,611.92 631.882,604.56 632.14,597.2C632.665,582.071 646.558,582.059 658.508,579.856C678.981,576.081 697.799,573.185 714.892,559.617C724.335,552.115 728.047,537.182 727.185,525.571Z" style="fill:rgb(72,101,163);fill-rule:nonzero;"/>
        <path d="M1013.6,1064.54C989.754,1056 977.353,1029.74 985.9,1005.9C994.441,982.06 1020.69,969.659 1044.53,978.201C1056.07,982.332 1059.01,984.676 1050.08,979.957L1108.08,818.097L990.577,775.992C991.379,774.377 992.128,772.715 992.752,770.973C1001.3,747.132 988.892,720.88 965.05,712.335C941.209,703.794 914.959,716.193 906.413,740.037C905.789,741.778 905.308,743.535 904.906,745.294L817.016,713.8C800.468,804.905 826.529,896.789 883.765,965.212L837.499,1094.33L989.571,1148.83L1019.21,1066.12C1017.33,1065.7 1015.46,1065.21 1013.6,1064.54Z" style="fill:rgb(0,170,230);fill-rule:nonzero;"/>
        <path d="M1275.43,669.33L1275.43,841.894C1273.53,841.654 1271.59,841.488 1269.62,841.488C1244.29,841.488 1223.76,862.019 1223.76,887.343C1223.76,912.67 1244.29,933.2 1269.62,933.2C1271.59,933.2 1273.53,933.034 1275.43,932.791L1275.43,1020.65L1417.51,1020.65L1417.51,886.889C1497.55,842.355 1555.55,763.019 1571.09,669.33L1275.43,669.33Z" style="fill:rgb(255,214,134);fill-rule:nonzero;"/>
        <path d="M1442.8,1163.3C1442.8,1183.02 1426.81,1199.02 1407.08,1199.02L1130.27,1199.02C1110.54,1199.02 1094.54,1183.02 1094.54,1163.3L1094.54,1047.22C1094.54,1027.49 1110.54,1011.5 1130.27,1011.5L1407.08,1011.5C1426.81,1011.5 1442.8,1027.49 1442.8,1047.22L1442.8,1163.3Z" style="fill:rgb(83,112,181);fill-rule:nonzero;"/>
        <path d="M1130.27,1199.02L1187.36,1199.02C1226.51,1179.24 1266.46,1161.14 1307.52,1145.67L1094.54,1145.67L1094.54,1163.3C1094.54,1183.02 1110.54,1199.02 1130.27,1199.02Z" style="fill:rgb(78,107,171);fill-rule:nonzero;"/>
        <path d="M1198.72,1071.12C1239.58,1063.56 1280.77,1057.21 1320.96,1046.51C1344.75,1040.17 1368.2,1032.8 1391.37,1024.62L1102.61,1024.62C1097.58,1030.78 1094.54,1038.64 1094.54,1047.22L1094.54,1083.16L1135.09,1083.16C1156.28,1079.06 1177.49,1075.04 1198.72,1071.12Z" style="fill:rgb(78,107,171);fill-rule:nonzero;"/>
        <path d="M1098.23,1085.15C1096.52,1090.17 1095.55,1095.65 1095.55,1101.42L1095.55,1144.68L1136.08,1144.68C1157.28,1139.74 1178.49,1134.91 1199.71,1130.19C1240.57,1121.09 1281.76,1113.45 1321.95,1100.57C1336.55,1095.89 1351,1090.7 1365.35,1085.15L1098.23,1085.15Z" style="fill:rgb(78,107,171);fill-rule:nonzero;"/>
        <path d="M1482.01,1023.5C1482.01,1030.7 1478,1036.53 1473.08,1036.53L1064.28,1036.53C1059.35,1036.53 1055.34,1030.7 1055.34,1023.5C1055.34,1016.31 1059.35,1010.48 1064.28,1010.48L1473.08,1010.48C1478,1010.48 1482.01,1016.31 1482.01,1023.5Z" style="fill:rgb(83,112,181);fill-rule:nonzero;"/>
        <path d="M1482.01,1023.5C1482.01,1030.7 1478,1036.53 1473.08,1036.53L1064.28,1036.53C1059.35,1036.53 1055.34,1030.7 1055.34,1023.5C1055.34,1016.31 1059.35,1010.48 1064.28,1010.48L1473.08,1010.48C1478,1010.48 1482.01,1016.31 1482.01,1023.5Z" style="fill:rgb(83,112,181);fill-rule:nonzero;"/>
        <path d="M1482.01,1084.53C1482.01,1091.72 1478,1097.55 1473.08,1097.55L1064.28,1097.55C1059.35,1097.55 1055.34,1091.72 1055.34,1084.53C1055.34,1077.33 1059.35,1071.5 1064.28,1071.5L1473.08,1071.5C1478,1071.5 1482.01,1077.33 1482.01,1084.53Z" style="fill:rgb(83,112,181);fill-rule:nonzero;"/>
        <path d="M1482.01,1145.55C1482.01,1152.74 1478,1158.57 1473.08,1158.57L1064.28,1158.57C1059.35,1158.57 1055.34,1152.74 1055.34,1145.55C1055.34,1138.36 1059.35,1132.52 1064.28,1132.52L1473.08,1132.52C1478,1132.52 1482.01,1138.36 1482.01,1145.55Z" style="fill:rgb(83,112,181);fill-rule:nonzero;"/>
        <path d="M1481.88,1021.64C1481.25,1015.34 1477.57,1010.48 1473.08,1010.48L1303.4,1010.48L1481.88,1021.64Z" style="fill:rgb(94,132,195);fill-rule:nonzero;"/>
        <path d="M1481.84,1082.17C1481.08,1076.11 1477.45,1071.5 1473.08,1071.5L1303.4,1071.5L1481.84,1082.17Z" style="fill:rgb(94,132,195);fill-rule:nonzero;"/>
        <path d="M1481.88,1143.69C1481.25,1137.38 1477.57,1132.52 1473.08,1132.52L1303.4,1132.52L1481.88,1143.69Z" style="fill:rgb(94,132,195);fill-rule:nonzero;"/>
        <path d="M1575.27,618.8C1575.27,450.635 1439.88,314.115 1272.16,312.247L1272.16,457.598C1280.55,446.926 1293.55,440.047 1308.19,440.047C1333.51,440.047 1354.04,460.579 1354.04,485.904C1354.04,511.23 1333.51,531.759 1308.19,531.759C1293.55,531.759 1280.55,524.883 1272.16,514.21L1272.16,669.33L1405.09,669.33C1397.82,677.448 1393.35,688.14 1393.35,699.904C1393.35,725.23 1413.88,745.759 1439.21,745.759C1464.53,745.759 1485.06,725.23 1485.06,699.904C1485.06,688.14 1480.6,677.448 1473.32,669.33L1571.09,669.33C1573.82,652.89 1575.27,636.014 1575.27,618.8Z" style="fill:rgb(207,107,113);fill-rule:nonzero;"/>
        <path d="M1308.19,440.047C1293.55,440.047 1280.55,446.926 1272.16,457.598L1272.16,312.247C1271,312.233 1269.84,312.203 1268.68,312.203C1099.35,312.203 962.078,449.471 962.078,618.8C962.078,636.014 963.515,652.89 966.24,669.33L1059.6,669.33C1059.4,667.538 1059.25,665.722 1059.25,663.875C1059.25,638.546 1079.78,618.017 1105.11,618.017C1130.44,618.017 1150.96,638.546 1150.96,663.875C1150.96,665.722 1150.82,667.538 1150.61,669.33L1272.16,669.33L1272.16,514.21C1280.55,524.883 1293.55,531.759 1308.19,531.759C1333.51,531.759 1354.04,511.23 1354.04,485.904C1354.04,460.579 1333.51,440.047 1308.19,440.047Z" style="fill:rgb(255,247,143);fill-rule:nonzero;"/>
        <path d="M703.982,996.587C685.209,916.129 668.091,911.603 648.723,874.621C620.367,820.47 553.054,770.572 539.776,807.756C533.27,825.979 652.474,988.54 670.533,1020.06C681.815,1016.88 691.11,1002.6 703.982,996.587Z" style="fill:rgb(235,177,185);fill-rule:nonzero;"/>
        <path d="M666.783,1030.87C650.898,1004.75 580.057,908.662 573.794,898.671C530.322,829.294 518.073,811.975 540.891,785.624C566.739,755.772 618.227,814.331 651.785,863.751C673.937,896.382 684.203,914.018 711.805,979.176C715.041,1000.22 687.676,1040.87 666.783,1030.87Z" style="fill:rgb(237,133,127);fill-rule:nonzero;"/>
        <path d="M679.07,1016.91C672.976,1011.3 657.706,992.039 662.804,980.926C667.07,971.611 672.114,971.038 672.099,971.043C726.099,955.426 776.329,945.203 817.814,940.233C858.606,935.348 831.97,964.119 831.97,964.119C789.989,982.607 751.928,1003.48 679.07,1016.91Z" style="fill:rgb(235,177,185);fill-rule:nonzero;"/>
        <path d="M835.562,929.291C826.074,937.01 817.071,945.48 818.295,949.176L818.543,949.917C819.514,949.682 820.48,949.449 821.456,949.213C821.456,949.213 818.879,950.769 822.59,948.938C822.883,948.869 823.18,948.795 823.473,948.723C820.995,951.411 819.766,954.517 821.253,958.062C826.143,969.721 843.33,963.118 852.006,960.713C859.056,958.761 865.76,955.466 872.191,952.028C879.712,947.999 887.749,932.7 881.392,924.909C874.867,916.921 867.014,930.193 861.727,923.747C858.799,920.174 866.434,907.657 855.261,914.288C853.056,915.985 844.113,922.334 835.562,929.291Z" style="fill:rgb(235,177,185);fill-rule:nonzero;"/>
        <path d="M808.975,940.746C768.942,945.998 718.727,951.633 667.823,966.351C659.262,978.839 667.07,971.611 662.804,980.926C657.706,992.039 664.186,1026.42 670.28,1032.02C736.197,1019.88 781.333,989.093 818.959,972.034L808.975,940.746Z" style="fill:rgb(237,133,127);fill-rule:nonzero;"/>
        <path d="M803.837,979.332C809.02,976.716 814.053,974.256 818.959,972.034L808.975,940.746C803.436,941.472 797.674,942.297 791.753,943.201L803.837,979.332Z" style="fill:white;fill-rule:nonzero;"/>
        <path d="M1770.91,1800.17L831.147,1800.17L965.041,1619.51L1637.02,1619.51L1770.91,1800.17Z" style="fill:rgb(83,112,181);fill-rule:nonzero;"/>
        <path d="M1613.27,1648.3C1594.83,1648.3 1576.32,1642.15 1572.05,1634.77C1571.62,1634.03 1571.39,1633.3 1571.28,1632.59L1030.48,1632.59C1030.45,1633.51 1030.19,1634.45 1029.62,1635.43C1025.35,1642.83 1006.81,1649 988.337,1649C987.203,1649 986.098,1648.97 985.023,1648.93L916.882,1753.02C920.42,1752.59 923.982,1752.34 927.495,1752.34C949.919,1752.34 962.781,1761.7 955.994,1773.66C955.498,1774.53 954.884,1775.39 954.21,1776.25L1660.85,1776.25C1659.75,1775.04 1658.78,1773.81 1658.04,1772.56C1651.24,1760.99 1662.98,1751.9 1684.09,1751.37L1616.58,1648.23C1615.5,1648.28 1614.4,1648.3 1613.27,1648.3Z" style="fill:rgb(136,171,217);fill-rule:nonzero;"/>
        <path d="M1435.6,1694.84C1444.84,1731.12 1385.13,1764.41 1301.03,1764.41C1216.92,1764.41 1157.22,1731.12 1166.46,1694.84C1174.58,1662.93 1234.45,1639.76 1301.03,1639.76C1367.61,1639.76 1427.48,1662.93 1435.6,1694.84Z" style="fill:rgb(83,112,181);fill-rule:nonzero;"/>
        <path d="M1314.45,1703.2L1314.84,1718.56C1323.53,1717.51 1327.76,1714.92 1327.57,1710.83C1327.39,1707.15 1323,1704.62 1314.45,1703.2ZM1294.3,1683.62L1294.46,1670.83C1287.22,1671.91 1283.54,1673.94 1283.44,1676.94C1283.33,1680.21 1286.94,1682.45 1294.3,1683.62ZM1294.94,1651.1L1313.48,1651.1L1313.65,1657.6C1328.86,1658.21 1342.21,1660.68 1353.84,1665.06L1333.55,1676.62C1325.56,1673.73 1318.95,1671.95 1313.65,1671.24L1314.03,1686.35C1344.82,1690.55 1361.05,1698.52 1362.42,1710.59C1363.12,1716.88 1359.6,1722.28 1351.71,1726.75C1343.71,1731.3 1331.45,1734.32 1315.01,1735.78L1315.29,1747.25L1293.47,1747.25L1293.62,1735.91L1290.07,1735.91C1282.02,1735.91 1272.67,1734.79 1262.08,1732.57C1251.58,1730.37 1243.59,1727.57 1238.11,1724.2L1261.56,1710.95C1270.59,1715.51 1281.37,1718.42 1293.83,1719.59L1294.09,1699.84C1279.24,1698.1 1268.09,1695.11 1260.66,1690.91C1253.34,1686.78 1249.99,1682.08 1250.51,1676.83C1251.05,1671.39 1255.04,1666.88 1262.44,1663.26C1269.73,1659.7 1280.51,1657.79 1294.86,1657.5L1294.94,1651.1Z" style="fill:rgb(136,171,217);fill-rule:nonzero;"/>
        <path d="M1582.99,1694.84C1588,1704.24 1575.28,1712.11 1554.39,1712.11C1533.5,1712.11 1513.47,1704.24 1509.75,1694.84C1506.17,1685.75 1519.24,1678.62 1538.84,1678.62C1558.45,1678.62 1578.14,1685.75 1582.99,1694.84Z" style="fill:rgb(83,112,181);fill-rule:nonzero;"/>
        <path d="M1092.31,1694.84C1088.59,1704.24 1068.55,1712.11 1047.67,1712.11C1026.79,1712.11 1014.05,1704.24 1019.07,1694.84C1023.91,1685.75 1043.61,1678.62 1063.21,1678.62C1082.82,1678.62 1095.89,1685.75 1092.31,1694.84Z" style="fill:rgb(83,112,181);fill-rule:nonzero;"/>
        <path d="M1770.91,1800.17L831.147,1800.17L965.041,1619.51L1637.02,1619.51L1770.91,1800.17Z" style="fill:rgb(73,99,160);fill-rule:nonzero;"/>
        <path d="M1613.27,1648.3C1594.83,1648.3 1576.32,1642.15 1572.05,1634.77C1571.62,1634.03 1571.39,1633.3 1571.28,1632.59L1030.48,1632.59C1030.45,1633.51 1030.19,1634.45 1029.62,1635.43C1025.35,1642.83 1006.81,1649 988.337,1649C987.203,1649 986.098,1648.97 985.023,1648.93L916.882,1753.02C920.42,1752.59 923.982,1752.34 927.495,1752.34C949.919,1752.34 962.781,1761.7 955.994,1773.66C955.498,1774.53 954.884,1775.39 954.21,1776.25L1660.85,1776.25C1659.75,1775.04 1658.78,1773.81 1658.04,1772.56C1651.24,1760.99 1662.98,1751.9 1684.09,1751.37L1616.58,1648.23C1615.5,1648.28 1614.4,1648.3 1613.27,1648.3Z" style="fill:rgb(136,171,217);fill-rule:nonzero;"/>
        <path d="M1435.6,1694.84C1444.84,1731.12 1385.13,1764.41 1301.03,1764.41C1216.92,1764.41 1157.22,1731.12 1166.46,1694.84C1174.58,1662.93 1234.45,1639.76 1301.03,1639.76C1367.61,1639.76 1427.48,1662.93 1435.6,1694.84Z" style="fill:rgb(83,112,181);fill-rule:nonzero;"/>
        <path d="M1314.45,1703.2L1314.84,1718.56C1323.53,1717.51 1327.76,1714.92 1327.57,1710.83C1327.39,1707.15 1323,1704.62 1314.45,1703.2ZM1294.3,1683.62L1294.46,1670.83C1287.22,1671.91 1283.54,1673.94 1283.44,1676.94C1283.33,1680.21 1286.94,1682.45 1294.3,1683.62ZM1294.94,1651.1L1313.48,1651.1L1313.65,1657.6C1328.86,1658.21 1342.21,1660.68 1353.84,1665.06L1333.55,1676.62C1325.56,1673.73 1318.95,1671.95 1313.65,1671.24L1314.03,1686.35C1344.82,1690.55 1361.05,1698.52 1362.42,1710.59C1363.12,1716.88 1359.6,1722.28 1351.71,1726.75C1343.71,1731.3 1331.45,1734.32 1315.01,1735.78L1315.29,1747.25L1293.47,1747.25L1293.62,1735.91L1290.07,1735.91C1282.02,1735.91 1272.67,1734.79 1262.08,1732.57C1251.58,1730.37 1243.59,1727.57 1238.11,1724.2L1261.56,1710.95C1270.59,1715.51 1281.37,1718.42 1293.83,1719.59L1294.09,1699.84C1279.24,1698.1 1268.09,1695.11 1260.66,1690.91C1253.34,1686.78 1249.99,1682.08 1250.51,1676.83C1251.05,1671.39 1255.04,1666.88 1262.44,1663.26C1269.73,1659.7 1280.51,1657.79 1294.86,1657.5L1294.94,1651.1Z" style="fill:rgb(136,171,217);fill-rule:nonzero;"/>
        <path d="M1582.99,1694.84C1588,1704.24 1575.28,1712.11 1554.39,1712.11C1533.5,1712.11 1513.47,1704.24 1509.75,1694.84C1506.17,1685.75 1519.24,1678.62 1538.84,1678.62C1558.45,1678.62 1578.14,1685.75 1582.99,1694.84Z" style="fill:rgb(83,112,181);fill-rule:nonzero;"/>
        <path d="M1092.31,1694.84C1088.59,1704.24 1068.55,1712.11 1047.67,1712.11C1026.79,1712.11 1014.05,1704.24 1019.07,1694.84C1023.91,1685.75 1043.61,1678.62 1063.21,1678.62C1082.82,1678.62 1095.89,1685.75 1092.31,1694.84Z" style="fill:rgb(83,112,181);fill-rule:nonzero;"/>
        <path d="M1770.91,1765.6L831.147,1765.6L965.041,1584.94L1637.02,1584.94L1770.91,1765.6Z" style="fill:rgb(79,108,175);fill-rule:nonzero;"/>
        <path d="M1613.27,1613.73C1594.83,1613.73 1576.32,1607.58 1572.05,1600.2C1571.62,1599.46 1571.39,1598.73 1571.28,1598.02L1030.48,1598.02C1030.45,1598.93 1030.19,1599.88 1029.62,1600.86C1025.35,1608.25 1006.81,1614.42 988.337,1614.42C987.203,1614.42 986.098,1614.4 985.023,1614.35L916.882,1718.45C920.42,1718.02 923.982,1717.77 927.495,1717.77C949.919,1717.77 962.781,1727.13 955.994,1739.09C955.498,1739.96 954.884,1740.82 954.21,1741.68L1660.85,1741.68C1659.75,1740.47 1658.78,1739.24 1658.04,1737.98C1651.24,1726.42 1662.98,1717.33 1684.09,1716.79L1616.58,1613.66C1615.5,1613.7 1614.4,1613.73 1613.27,1613.73Z" style="fill:rgb(136,171,217);fill-rule:nonzero;"/>
        <path d="M1435.6,1660.26C1444.84,1696.55 1385.13,1729.84 1301.03,1729.84C1216.92,1729.84 1157.22,1696.55 1166.46,1660.26C1174.58,1628.36 1234.45,1605.19 1301.03,1605.19C1367.61,1605.19 1427.48,1628.36 1435.6,1660.26Z" style="fill:rgb(83,112,181);fill-rule:nonzero;"/>
        <path d="M1314.45,1668.63L1314.84,1683.98C1323.53,1682.93 1327.76,1680.34 1327.57,1676.26C1327.39,1672.58 1323,1670.05 1314.45,1668.63ZM1294.3,1649.04L1294.46,1636.26C1287.22,1637.34 1283.54,1639.37 1283.44,1642.36C1283.33,1645.64 1286.94,1647.87 1294.3,1649.04ZM1294.94,1616.52L1313.48,1616.52L1313.65,1623.02C1328.86,1623.63 1342.21,1626.1 1353.84,1630.49L1333.55,1642.05C1325.56,1639.16 1318.95,1637.37 1313.65,1636.66L1314.03,1651.78C1344.82,1655.98 1361.05,1663.94 1362.42,1676.02C1363.12,1682.31 1359.6,1687.71 1351.71,1692.18C1343.71,1696.72 1331.45,1699.75 1315.01,1701.21L1315.29,1712.67L1293.47,1712.67L1293.62,1701.34L1290.07,1701.34C1282.02,1701.34 1272.67,1700.22 1262.08,1698C1251.58,1695.79 1243.59,1693 1238.11,1689.63L1261.56,1676.37C1270.59,1680.94 1281.37,1683.84 1293.83,1685.02L1294.09,1665.26C1279.24,1663.53 1268.09,1660.54 1260.66,1656.34C1253.34,1652.21 1249.99,1647.5 1250.51,1642.26C1251.05,1636.81 1255.04,1632.31 1262.44,1628.69C1269.73,1625.12 1280.51,1623.22 1294.86,1622.93L1294.94,1616.52Z" style="fill:rgb(136,171,217);fill-rule:nonzero;"/>
        <path d="M1582.99,1660.26C1588,1669.67 1575.28,1677.54 1554.39,1677.54C1533.5,1677.54 1513.47,1669.67 1509.75,1660.26C1506.17,1651.18 1519.24,1644.04 1538.84,1644.04C1558.45,1644.04 1578.14,1651.18 1582.99,1660.26Z" style="fill:rgb(83,112,181);fill-rule:nonzero;"/>
        <path d="M1092.31,1660.26C1088.59,1669.67 1068.55,1677.54 1047.67,1677.54C1026.79,1677.54 1014.05,1669.67 1019.07,1660.26C1023.91,1651.18 1043.61,1644.04 1063.21,1644.04C1082.82,1644.04 1095.89,1651.18 1092.31,1660.26Z" style="fill:rgb(83,112,181);fill-rule:nonzero;"/>
        <path d="M1770.91,1731.03L831.147,1731.03L965.041,1550.37L1637.02,1550.37L1770.91,1731.03Z" style="fill:rgb(73,99,160);fill-rule:nonzero;"/>
        <path d="M1613.27,1579.15C1594.83,1579.15 1576.32,1573 1572.05,1565.63C1571.62,1564.88 1571.39,1564.16 1571.28,1563.45L1030.48,1563.45C1030.45,1564.36 1030.19,1565.31 1029.62,1566.29C1025.35,1573.68 1006.81,1579.85 988.337,1579.85C987.203,1579.85 986.098,1579.82 985.023,1579.78L916.882,1683.87C920.42,1683.45 923.982,1683.2 927.495,1683.2C949.919,1683.2 962.781,1692.55 955.994,1704.51C955.498,1705.39 954.884,1706.25 954.21,1707.1L1660.85,1707.1C1659.75,1705.89 1658.78,1704.66 1658.04,1703.41C1651.24,1691.85 1662.98,1682.75 1684.09,1682.22L1616.58,1579.08C1615.5,1579.13 1614.4,1579.15 1613.27,1579.15Z" style="fill:rgb(136,171,217);fill-rule:nonzero;"/>
        <path d="M1435.6,1625.69C1444.84,1661.98 1385.13,1695.26 1301.03,1695.26C1216.92,1695.26 1157.22,1661.98 1166.46,1625.69C1174.58,1593.78 1234.45,1570.61 1301.03,1570.61C1367.61,1570.61 1427.48,1593.78 1435.6,1625.69Z" style="fill:rgb(83,112,181);fill-rule:nonzero;"/>
        <path d="M1314.45,1634.05L1314.84,1649.41C1323.53,1648.36 1327.76,1645.77 1327.57,1641.68C1327.39,1638.01 1323,1635.48 1314.45,1634.05ZM1294.3,1614.47L1294.46,1601.68C1287.22,1602.77 1283.54,1604.79 1283.44,1607.79C1283.33,1611.06 1286.94,1613.3 1294.3,1614.47ZM1294.94,1581.95L1313.48,1581.95L1313.65,1588.45C1328.86,1589.06 1342.21,1591.53 1353.84,1595.92L1333.55,1607.48C1325.56,1604.59 1318.95,1602.8 1313.65,1602.09L1314.03,1617.2C1344.82,1621.4 1361.05,1629.37 1362.42,1641.45C1363.12,1647.73 1359.6,1653.14 1351.71,1657.61C1343.71,1662.15 1331.45,1665.18 1315.01,1666.63L1315.29,1678.1L1293.47,1678.1L1293.62,1666.76L1290.07,1666.76C1282.02,1666.76 1272.67,1665.64 1262.08,1663.42C1251.58,1661.22 1243.59,1658.42 1238.11,1655.06L1261.56,1641.8C1270.59,1646.37 1281.37,1649.27 1293.83,1650.44L1294.09,1630.69C1279.24,1628.95 1268.09,1625.97 1260.66,1621.77C1253.34,1617.64 1249.99,1612.93 1250.51,1607.68C1251.05,1602.24 1255.04,1597.73 1262.44,1594.12C1269.73,1590.55 1280.51,1588.64 1294.86,1588.35L1294.94,1581.95Z" style="fill:rgb(136,171,217);fill-rule:nonzero;"/>
        <path d="M1582.99,1625.69C1588,1635.09 1575.28,1642.97 1554.39,1642.97C1533.5,1642.97 1513.47,1635.09 1509.75,1625.69C1506.17,1616.61 1519.24,1609.47 1538.84,1609.47C1558.45,1609.47 1578.14,1616.61 1582.99,1625.69Z" style="fill:rgb(83,112,181);fill-rule:nonzero;"/>
        <path d="M1092.31,1625.69C1088.59,1635.09 1068.55,1642.97 1047.67,1642.97C1026.79,1642.97 1014.05,1635.09 1019.07,1625.69C1023.91,1616.61 1043.61,1609.47 1063.21,1609.47C1082.82,1609.47 1095.89,1616.61 1092.31,1625.69Z" style="fill:rgb(83,112,181);fill-rule:nonzero;"/>
        <path d="M1770.91,1696.45L831.147,1696.45L965.041,1515.79L1637.02,1515.79L1770.91,1696.45Z" style="fill:rgb(83,112,181);fill-rule:nonzero;"/>
        <path d="M1613.27,1544.58C1594.83,1544.58 1576.32,1538.43 1572.05,1531.05C1571.62,1530.31 1571.39,1529.58 1571.28,1528.87L1030.48,1528.87C1030.45,1529.79 1030.19,1530.73 1029.62,1531.71C1025.35,1539.11 1006.81,1545.28 988.337,1545.28C987.203,1545.28 986.098,1545.25 985.023,1545.2L916.882,1649.3C920.42,1648.87 923.982,1648.62 927.495,1648.62C949.919,1648.62 962.781,1657.98 955.994,1669.94C955.498,1670.81 954.884,1671.67 954.21,1672.53L1660.85,1672.53C1659.75,1671.32 1658.78,1670.09 1658.04,1668.83C1651.24,1657.27 1662.98,1648.18 1684.09,1647.65L1616.58,1544.51C1615.5,1544.56 1614.4,1544.58 1613.27,1544.58Z" style="fill:rgb(136,171,217);fill-rule:nonzero;"/>
        <path d="M1435.6,1591.12C1444.84,1627.4 1385.13,1660.69 1301.03,1660.69C1216.92,1660.69 1157.22,1627.4 1166.46,1591.12C1174.58,1559.21 1234.45,1536.04 1301.03,1536.04C1367.61,1536.04 1427.48,1559.21 1435.6,1591.12Z" style="fill:rgb(83,112,181);fill-rule:nonzero;"/>
        <path d="M1314.45,1599.48L1314.84,1614.83C1323.53,1613.79 1327.76,1611.19 1327.57,1607.11C1327.39,1603.43 1323,1600.9 1314.45,1599.48ZM1294.3,1579.9L1294.46,1567.11C1287.22,1568.19 1283.54,1570.22 1283.44,1573.22C1283.33,1576.49 1286.94,1578.73 1294.3,1579.9ZM1294.94,1547.38L1313.48,1547.38L1313.65,1553.88C1328.86,1554.49 1342.21,1556.96 1353.84,1561.34L1333.55,1572.9C1325.56,1570.01 1318.95,1568.23 1313.65,1567.51L1314.03,1582.63C1344.82,1586.83 1361.05,1594.8 1362.42,1606.87C1363.12,1613.16 1359.6,1618.57 1351.71,1623.03C1343.71,1627.57 1331.45,1630.6 1315.01,1632.06L1315.29,1643.53L1293.47,1643.53L1293.62,1632.19L1290.07,1632.19C1282.02,1632.19 1272.67,1631.07 1262.08,1628.85C1251.58,1626.65 1243.59,1623.85 1238.11,1620.48L1261.56,1607.23C1270.59,1611.79 1281.37,1614.7 1293.83,1615.87L1294.09,1596.12C1279.24,1594.38 1268.09,1591.39 1260.66,1587.2C1253.34,1583.06 1249.99,1578.36 1250.51,1573.11C1251.05,1567.67 1255.04,1563.16 1262.44,1559.54C1269.73,1555.98 1280.51,1554.07 1294.86,1553.78L1294.94,1547.38Z" style="fill:rgb(136,171,217);fill-rule:nonzero;"/>
        <path d="M1582.99,1591.12C1588,1600.52 1575.28,1608.39 1554.39,1608.39C1533.5,1608.39 1513.47,1600.52 1509.75,1591.12C1506.17,1582.03 1519.24,1574.9 1538.84,1574.9C1558.45,1574.9 1578.14,1582.03 1582.99,1591.12Z" style="fill:rgb(83,112,181);fill-rule:nonzero;"/>
        <path d="M1092.31,1591.12C1088.59,1600.52 1068.55,1608.39 1047.67,1608.39C1026.79,1608.39 1014.05,1600.52 1019.07,1591.12C1023.91,1582.03 1043.61,1574.9 1063.21,1574.9C1082.82,1574.9 1095.89,1582.03 1092.31,1591.12Z" style="fill:rgb(83,112,181);fill-rule:nonzero;"/>
        <path d="M1770.91,1661.88L831.147,1661.88L965.041,1481.22L1637.02,1481.22L1770.91,1661.88Z" style="fill:rgb(73,99,160);fill-rule:nonzero;"/>
        <path d="M1613.27,1510C1594.83,1510 1576.32,1503.86 1572.05,1496.48C1571.62,1495.74 1571.39,1495.01 1571.28,1494.3L1030.48,1494.3C1030.45,1495.21 1030.19,1496.16 1029.62,1497.14C1025.35,1504.53 1006.81,1510.7 988.337,1510.7C987.203,1510.7 986.098,1510.68 985.023,1510.63L916.882,1614.73C920.42,1614.3 923.982,1614.05 927.495,1614.05C949.919,1614.05 962.781,1623.4 955.994,1635.36C955.498,1636.24 954.884,1637.1 954.21,1637.95L1660.85,1637.95C1659.75,1636.75 1658.78,1635.52 1658.04,1634.26C1651.24,1622.7 1662.98,1613.61 1684.09,1613.07L1616.58,1509.93C1615.5,1509.98 1614.4,1510 1613.27,1510Z" style="fill:rgb(136,171,217);fill-rule:nonzero;"/>
        <path d="M1435.6,1556.54C1444.84,1592.83 1385.13,1626.12 1301.03,1626.12C1216.92,1626.12 1157.22,1592.83 1166.46,1556.54C1174.58,1524.64 1234.45,1501.46 1301.03,1501.46C1367.61,1501.46 1427.48,1524.64 1435.6,1556.54Z" style="fill:rgb(83,112,181);fill-rule:nonzero;"/>
        <path d="M1314.45,1564.91L1314.84,1580.26C1323.53,1579.21 1327.76,1576.62 1327.57,1572.54C1327.39,1568.86 1323,1566.33 1314.45,1564.91ZM1294.3,1545.32L1294.46,1532.54C1287.22,1533.62 1283.54,1535.65 1283.44,1538.64C1283.33,1541.92 1286.94,1544.15 1294.3,1545.32ZM1294.94,1512.8L1313.48,1512.8L1313.65,1519.3C1328.86,1519.91 1342.21,1522.38 1353.84,1526.77L1333.55,1538.33C1325.56,1535.44 1318.95,1533.65 1313.65,1532.94L1314.03,1548.06C1344.82,1552.26 1361.05,1560.22 1362.42,1572.3C1363.12,1578.59 1359.6,1583.99 1351.71,1588.46C1343.71,1593 1331.45,1596.03 1315.01,1597.49L1315.29,1608.95L1293.47,1608.95L1293.62,1597.62L1290.07,1597.62C1282.02,1597.62 1272.67,1596.5 1262.08,1594.28C1251.58,1592.07 1243.59,1589.28 1238.11,1585.91L1261.56,1572.65C1270.59,1577.22 1281.37,1580.12 1293.83,1581.3L1294.09,1561.54C1279.24,1559.81 1268.09,1556.82 1260.66,1552.62C1253.34,1548.49 1249.99,1543.78 1250.51,1538.54C1251.05,1533.09 1255.04,1528.59 1262.44,1524.97C1269.73,1521.4 1280.51,1519.49 1294.86,1519.21L1294.94,1512.8Z" style="fill:rgb(136,171,217);fill-rule:nonzero;"/>
        <path d="M1582.99,1556.54C1588,1565.95 1575.28,1573.82 1554.39,1573.82C1533.5,1573.82 1513.47,1565.95 1509.75,1556.54C1506.17,1547.46 1519.24,1540.32 1538.84,1540.32C1558.45,1540.32 1578.14,1547.46 1582.99,1556.54Z" style="fill:rgb(83,112,181);fill-rule:nonzero;"/>
        <path d="M1092.31,1556.54C1088.59,1565.95 1068.55,1573.82 1047.67,1573.82C1026.79,1573.82 1014.05,1565.95 1019.07,1556.54C1023.91,1547.46 1043.61,1540.32 1063.21,1540.32C1082.82,1540.32 1095.89,1547.46 1092.31,1556.54Z" style="fill:rgb(83,112,181);fill-rule:nonzero;"/>
        <path d="M1770.91,1627.3L831.147,1627.3L965.041,1446.65L1637.02,1446.65L1770.91,1627.3Z" style="fill:rgb(83,112,181);fill-rule:nonzero;"/>
        <path d="M1613.27,1475.43C1594.83,1475.43 1576.32,1469.28 1572.05,1461.91C1571.62,1461.16 1571.39,1460.44 1571.28,1459.73L1030.48,1459.73C1030.45,1460.64 1030.19,1461.59 1029.62,1462.57C1025.35,1469.96 1006.81,1476.13 988.337,1476.13C987.203,1476.13 986.098,1476.11 985.023,1476.06L916.882,1580.15C920.42,1579.73 923.982,1579.48 927.495,1579.48C949.919,1579.48 962.781,1588.83 955.994,1600.79C955.498,1601.66 954.884,1602.53 954.21,1603.38L1660.85,1603.38C1659.75,1602.17 1658.78,1600.94 1658.04,1599.69C1651.24,1588.12 1662.98,1579.03 1684.09,1578.5L1616.58,1475.36C1615.5,1475.41 1614.4,1475.43 1613.27,1475.43Z" style="fill:rgb(136,171,217);fill-rule:nonzero;"/>
        <path d="M1435.6,1521.97C1444.84,1558.26 1385.13,1591.55 1301.03,1591.55C1216.92,1591.55 1157.22,1558.26 1166.46,1521.97C1174.58,1490.06 1234.45,1466.89 1301.03,1466.89C1367.61,1466.89 1427.48,1490.06 1435.6,1521.97Z" style="fill:rgb(83,112,181);fill-rule:nonzero;"/>
        <path d="M1314.45,1530.33L1314.84,1545.69C1323.53,1544.64 1327.76,1542.05 1327.57,1537.96C1327.39,1534.29 1323,1531.76 1314.45,1530.33ZM1294.3,1510.75L1294.46,1497.96C1287.22,1499.04 1283.54,1501.07 1283.44,1504.07C1283.33,1507.34 1286.94,1509.58 1294.3,1510.75ZM1294.94,1478.23L1313.48,1478.23L1313.65,1484.73C1328.86,1485.34 1342.21,1487.81 1353.84,1492.2L1333.55,1503.76C1325.56,1500.87 1318.95,1499.08 1313.65,1498.37L1314.03,1513.48C1344.82,1517.68 1361.05,1525.65 1362.42,1537.73C1363.12,1544.01 1359.6,1549.42 1351.71,1553.89C1343.71,1558.43 1331.45,1561.45 1315.01,1562.91L1315.29,1574.38L1293.47,1574.38L1293.62,1563.04L1290.07,1563.04C1282.02,1563.04 1272.67,1561.92 1262.08,1559.7C1251.58,1557.5 1243.59,1554.7 1238.11,1551.33L1261.56,1538.08C1270.59,1542.65 1281.37,1545.55 1293.83,1546.72L1294.09,1526.97C1279.24,1525.24 1268.09,1522.25 1260.66,1518.05C1253.34,1513.91 1249.99,1509.21 1250.51,1503.96C1251.05,1498.52 1255.04,1494.01 1262.44,1490.39C1269.73,1486.83 1280.51,1484.92 1294.86,1484.63L1294.94,1478.23Z" style="fill:rgb(136,171,217);fill-rule:nonzero;"/>
        <path d="M1582.99,1521.97C1588,1531.37 1575.28,1539.25 1554.39,1539.25C1533.5,1539.25 1513.47,1531.37 1509.75,1521.97C1506.17,1512.89 1519.24,1505.75 1538.84,1505.75C1558.45,1505.75 1578.14,1512.89 1582.99,1521.97Z" style="fill:rgb(83,112,181);fill-rule:nonzero;"/>
        <path d="M1092.31,1521.97C1088.59,1531.37 1068.55,1539.25 1047.67,1539.25C1026.79,1539.25 1014.05,1531.37 1019.07,1521.97C1023.91,1512.89 1043.61,1505.75 1063.21,1505.75C1082.82,1505.75 1095.89,1512.89 1092.31,1521.97Z" style="fill:rgb(83,112,181);fill-rule:nonzero;"/>
    </g>
</svg>
